PathFileType	4	(X/Y/Z)	6_1_26_p0_0-597_filt_butterworth.trc
DataRate	CameraRate	NumFrames	NumMarkers	Units	OrigDataRate	OrigDataStartFrame	OrigNumFrames
59.0	59.0	7	27	m	59.0	223	597
Frame#	Time	RHip			RKnee			RAnkle			RBigToe			RSmallToe			RHeel			LHip			LKnee			LAnkle			LBigToe			LSmallToe			LHeel			Neck			Head			Nose			RShoulder			RElbow			RWrist			RThumb			RIndex			RPinky			LShoulder			LElbow			LWrist			LThumb			LIndex			LPinky			
		X1	Y1	Z1	X2	Y2	Z2	X3	Y3	Z3	X4	Y4	Z4	X5	Y5	Z5	X6	Y6	Z6	X7	Y7	Z7	X8	Y8	Z8	X9	Y9	Z9	X10	Y10	Z10	X11	Y11	Z11	X12	Y12	Z12	X13	Y13	Z13	X14	Y14	Z14	X15	Y15	Z15	X16	Y16	Z16	X17	Y17	Z17	X18	Y18	Z18	X19	Y19	Z19	X20	Y20	Z20	X21	Y21	Z21	X22	Y22	Z22	X23	Y23	Z23	X24	Y24	Z24	X25	Y25	Z25	X26	Y26	Z26	X27	Y27	Z27	
223	3.7796610169491527	0.2665943761424669	0.46546684296854085	0.6893592920946876	0.29469795847789926	0.48639086647005186	1.08045142562721	0.26585402737818714	0.6186172928625628	1.4941547823901118	0.31925564149302454	0.4455062370824636	1.5213848529834046	0.3492522142739309	0.5069711621070182	1.5344738026018137	0.24953165207038971	0.6319203728690276	1.5231279497751076	0.0630319506363824	0.43313627233146795	0.7106206026519101	0.09090785752802577	0.47077383417393315	1.0977179570927855	0.09974234050820119	0.5349797801697194	1.506007092390097	0.12526677152597715	0.3697644112340349	1.5278170429904505	0.05983004769926108	0.3897096603810185	1.5181904708778633	0.10410487203686404	0.6414046184094877	1.6000698066731425	0.10210773764442216	0.4439328542084803	0.1471981353402268	0.06657808525990891	0.24975379270448878	-0.12552714846363253	0.0895209294618713	0.24063185215366378	0.04754043853644888	0.2870626933718968	0.4719482908190381	0.16037109857478768	0.3646655517592236	0.5167673998407477	0.42097675055463846	0.3552804892645893	0.4348105727763703	0.6452353219347374	0.2986103914362497	0.37176006570282644	0.7497828969992008	0.314379471324763	0.35589714945127154	0.7949818334182592	0.36908363009831413	0.42806565761333726	0.811526292056298	-0.042406274564489824	0.43719520284875363	0.21460980447657396	-0.06870506359624762	0.5228312324582086	0.4782485286168026	-0.08118366643767161	0.2941409542731135	0.35105971417243453	-0.07388109682428408	0.2185799987996459	0.270493284666838	-0.08745765615107677	0.19537305147601847	0.26865596192232066	-0.0700981891733656	0.19413974078595214	0.3141741545275513
224	3.7966101694915255	0.2654331730111553	0.4651197219273786	0.6892308615716191	0.2946215917180009	0.4861885984934478	1.0801266084826133	0.2659121139363353	0.6186981244548392	1.4940817747061306	0.31686631610510807	0.4462102430299991	1.5216064936133102	0.3489686035509583	0.5067002582699408	1.5357873659536663	0.24980544704634677	0.6315194120657177	1.5222302054877257	0.06184828682786628	0.43408243475212394	0.7119295265840451	0.09021718068929731	0.46740550257387015	1.0962641066677081	0.09815644367226437	0.5399335364438473	1.507369904911259	0.1240910650527963	0.37318412014943186	1.5300682903229994	0.05933941596772016	0.3865289834751635	1.5154162191805334	0.10257194115562335	0.645236677210685	1.6000082770170612	0.09808636288133403	0.44350828387355135	0.147508295703395	0.06278023509530513	0.25112008594798285	-0.12505179388026172	0.08759738516321326	0.2432050817261971	0.04886392473818924	0.28514562730184856	0.4693292665402024	0.1598994578605211	0.3615964738976243	0.510246314601172	0.4198919756586014	0.3542324400142943	0.4325531286491287	0.6451643660914909	0.29661834762468087	0.3722115997747128	0.7538484452753706	0.31290283617993747	0.354557596452849	0.7946626740251468	0.36507272897916354	0.4195427543770445	0.8090717047045397	-0.04775068524480919	0.43535524923681124	0.2152966721313237	-0.07153311476329752	0.5265909215131748	0.47800304241268143	-0.08835237926152331	0.30504723796341293	0.35643740185289535	-0.07582046478435282	0.21856092066259292	0.2711571901213139	-0.09327135976539196	0.19852026900433373	0.27040498637214966	-0.07177970293357148	0.1973979739632094	0.3178530785012369
225	3.8135593220338975	0.2639170012453317	0.4649228658126031	0.6891218561595016	0.29452192515755427	0.4858477365622466	1.079979346740949	0.2659187123934907	0.6187998182173737	1.4941675469343951	0.31512455991681587	0.4493279038587623	1.5221734138877314	0.34869466646686875	0.506565389595079	1.5376949602205332	0.2497506523677446	0.6317360833463974	1.5221750977805832	0.06042530019286685	0.43524397194251774	0.7143919114268689	0.08879647574876227	0.4626889771000433	1.0942858035675376	0.09692204550707595	0.543635830289666	1.508478755772208	0.12186887514935521	0.37955235980936197	1.534873773916762	0.05927904151427432	0.383553418538144	1.5143447305734803	0.10054387533252573	0.6502702835460475	1.6012230859210854	0.09447017981680972	0.4429988742011987	0.14773610756865557	0.05837955674405835	0.25286896502924855	-0.12452008999378844	0.08420102150690482	0.24645102704647123	0.04979380922166	0.28209782824268576	0.4672921440472798	0.15946370621577843	0.35865673818521715	0.5020661371772324	0.4190184933015565	0.35196385633531235	0.42879777131760416	0.6439652012564951	0.2940793421149978	0.3721308206522184	0.7550897285756859	0.3116437962506255	0.35441369616793233	0.7936474758749805	0.358822338226144	0.40802563177597945	0.8050174030321096	-0.05264427140679062	0.4342893685177187	0.2151454036658841	-0.07551138443143317	0.5366183003219958	0.4799823066513826	-0.09485365934433368	0.3153268930355231	0.3611953033531399	-0.07718147405271406	0.21830957856533695	0.27192437037750067	-0.09792446645777285	0.20063322522846905	0.27216954147391814	-0.07451825298238919	0.20072506934871726	0.3203489376715687
226	3.830508474576271	0.2626392979149134	0.46451038066121053	0.6891183328727908	0.29440630409171437	0.48542617308368585	1.080880821475413	0.2658325136619366	0.6188982997631823	1.4948684980623148	0.31421079545153247	0.4514347049424249	1.5226857649563583	0.3485175827204582	0.5065260215907823	1.5392710638499232	0.24919194654878865	0.6337152262977207	1.5233992749586562	0.05780062892659667	0.4381229457169302	0.7170768221928518	0.08682152298029118	0.45864179437181907	1.0926923625895184	0.09638674212153726	0.5451442462559222	1.508954609433806	0.11917804180904687	0.3871278120663846	1.5407168054563982	0.059606265841604084	0.3835782575853455	1.515173650898902	0.09912667414220665	0.6539996154516444	1.6036149744699584	0.09184127299502028	0.4424769268417232	0.14785808996570798	0.05266945481726705	0.2556008610849423	-0.12383896255269836	0.07996217686172068	0.24882336284745524	0.05039772034026323	0.2779670504925783	0.46343692050704255	0.15815284755657838	0.35602833494769065	0.4935599350414324	0.41795934929741163	0.3486160527016139	0.42282700547255014	0.6413870830568846	0.2918274112466312	0.37180018854662705	0.7528490469182539	0.31071535105252024	0.35467090672164103	0.7908693673359135	0.35118892016419323	0.39499056388282644	0.7994580772360923	-0.056177445775498734	0.4341237973865852	0.21352844507370844	-0.0797518192936758	0.5477414437892839	0.4828580454833761	-0.09978980293689871	0.32220066798191627	0.36267629994224115	-0.07779028627800989	0.21804835676248224	0.2724051327690071	-0.10180368250676133	0.20224361359702742	0.2736174773548386	-0.0784130282079315	0.20391382739597386	0.3214018714223124
227	3.847457627118644	0.2617211847367053	0.46302273173250524	0.6892627573646111	0.2943400092105212	0.4854918475718096	1.0835522175783108	0.2656347797381565	0.6190221082240306	1.4965065057293307	0.31387855892190747	0.45073826717331644	1.5227922063770745	0.34839869163968634	0.5064995971770963	1.5399675657524863	0.24799856585169272	0.6385890830649433	1.526420290525116	0.05456421427016471	0.4421353192200617	0.7188442186919559	0.08485971314244392	0.4563759436796153	1.0921164631823492	0.09627995030324492	0.5453715156797536	1.5089782556645441	0.11680088972533417	0.393851015468466	1.5451512584418499	0.05979878423021504	0.38665083312749	1.5169647505948736	0.09868383328635016	0.6554005449392758	1.6064908188960327	0.08968349815325276	0.44167514326669866	0.14790815582028616	0.0454795398003059	0.26039924426716504	-0.12294963519311158	0.07538757412121691	0.24998914233150216	0.05094212416478758	0.27324076803785985	0.45605506714502164	0.15579989956030585	0.354160884059496	0.48773326191021965	0.41629530398768605	0.3452951508386256	0.4157163345855592	0.6379165516629518	0.2899837830894517	0.3712062309008334	0.7490691423339855	0.30980314835879474	0.3552234397253866	0.7864094153912718	0.34394372676923346	0.3847000506017039	0.7940578172030339	-0.05879696452374906	0.433726300049216	0.21053755319228173	-0.08400738616528305	0.5531662500473368	0.48484957495672365	-0.10310418634636792	0.32569156453453785	0.3608060031513559	-0.07834061620510649	0.21792707158154118	0.27248952377928765	-0.10526917924857633	0.20449844893747707	0.2747493169550714	-0.08249077184914465	0.205945952211612	0.32058333393466804
228	3.864406779661017	0.2607469086722789	0.45967586182162434	0.6895556854338512	0.29436371522509197	0.4870741867050238	1.08723467553386	0.2654524257495021	0.6192451684786099	1.4985745165666198	0.3136662126922067	0.447971508530531	1.522440751459597	0.348234723191004	0.5064066334991179	1.5399737159519111	0.24651371202585004	0.6451195399605506	1.5304261557750898	0.051671729052341096	0.44513087243182325	0.7197393771350395	0.08348310477317994	0.45547497302163226	1.0925846205044176	0.0963109520875689	0.5453471894487122	1.5089137601421747	0.11530507380631437	0.39816862899373817	1.5468980059771131	0.059685741461445015	0.3900115722045487	1.5190591235270285	0.09876173679382584	0.655435323981398	1.6087249529686938	0.08707136538396401	0.4395683158563958	0.1478519609146062	0.03749562543286434	0.266045531176246	-0.12197716642715052	0.0704319848469223	0.25112835594447125	0.0516409903156424	0.2681027702545914	0.44575432120433633	0.1532752869889868	0.35285076053105346	0.48529977849266465	0.4142456244452189	0.3427905536752721	0.40877558035796996	0.6344847824143552	0.28700420391296627	0.37025570658939316	0.745936300566002	0.307873980254699	0.3561438009830059	0.7819705954800776	0.3377691481189613	0.38012800030297167	0.7910672133224257	-0.06201662312421385	0.4316565146289574	0.20709586323374538	-0.08883475318249323	0.5522636453781655	0.4858727123506765	-0.105500595211848	0.3278437784745461	0.3579476254769751	-0.07947669341812451	0.21788598849608903	0.272049403587503	-0.10812401087753593	0.20753975083314158	0.2756176657773895	-0.08638700231444407	0.20611430940967185	0.31803436001935853
229	3.8813559322033897	0.2596256485255333	0.4553986551386986	0.6899157374278648	0.29427116622075356	0.4904733233304835	1.0901261786124428	0.26569176738414574	0.6196898919182727	1.5001028447591627	0.31336045238676175	0.44596262560593586	1.5220061992095968	0.3480347668965886	0.50627482597958	1.5397467361389858	0.24541890440919306	0.6501136640760545	1.533485046043506	0.04915428081858006	0.4456422934976962	0.72084193755315	0.08264777308266982	0.4549608452131206	1.0937710593059145	0.09645109531996844	0.5452767987358894	1.5090407973698943	0.11476585245566391	0.3997766934478823	1.546702221312994	0.05952314009499045	0.3916942327090955	1.5206308150211791	0.09890435350011582	0.6551728759047201	1.6096705378047986	0.08366013433882276	0.4351113614090479	0.1475894173352144	0.02926789543899447	0.26943760301366326	-0.1211062805829892	0.06417191833809131	0.25245369826556857	0.05245065208276989	0.2625535866397781	0.4354492543380182	0.1513547196441304	0.3511247888522815	0.4836957109179888	0.41192137361980535	0.34084430724641834	0.40276521283232086	0.6317255285489761	0.2810120531143155	0.3688295247058252	0.7433354547300927	0.30430540893346525	0.35689717788044356	0.7788228043775846	0.3322052434353808	0.37900618684093323	0.7905110618349347	-0.06636958268831336	0.42722940710124524	0.20420806779504597	-0.0946631887277722	0.5486701778013245	0.48659864475913905	-0.10753799818336113	0.3295708953795728	0.35612107705323104	-0.08110934571466352	0.21804794867440844	0.2710564052568141	-0.1107578015272712	0.21074060409550158	0.2761059071278239	-0.09126475828708162	0.20464762333472042	0.31473985173351876
